<svg xmlns="http://www.w3.org/2000/svg" width="250" height="250" viewBox="0 0 250 250"><g fill="#923337"><path d="M183.006 180.364c0 5.244-4.25 9.493-9.493 9.493H59.2c-5.243 0-9.493-4.25-9.493-9.493V110.32c0-5.244 4.25-9.495 9.493-9.495h114.312c5.243 0 9.493 4.25 9.493 9.494v70.044zM43.56 136.812c0 3.605-2.923 6.53-6.53 6.53-3.606 0-6.53-2.925-6.53-6.53v-26.506c0-3.607 2.924-6.53 6.53-6.53 3.607 0 6.53 2.923 6.53 6.53v26.506z"/><circle cx="84.665" cy="69.586" r="26.506"/><circle cx="142.863" cy="69.586" r="26.506"/><path d="M219.5 181.758c0 9.795-8.643 1.536-8.643 1.536l-19.784-19.208V116.08l17.286-15.255s11.14-9.342 11.14-2.043v82.976zM180.7 116.08h10.373v48.006H180.7z"/></g></svg>