<svg xmlns="http://www.w3.org/2000/svg" width="250" height="250" viewBox="0 0 250 250"><g fill="#923337"><path d="M54.857 48.84c-29.83 0-54.01 24.183-54.01 54.01 0 29.83 24.18 54.01 54.01 54.01s54.01-24.18 54.01-54.01c0-29.828-24.18-54.01-54.01-54.01zm6.846 8.876L58.66 73.944h-8.62l-3.044-16.23h14.707zm-40.907 71.19l-8.904-11.703L26.65 109.8l5.22 6.86-11.074 12.247zm34.06-6.277c-10.922 0-19.777-8.856-19.777-19.78s8.854-19.777 19.777-19.777c10.923 0 19.778 8.855 19.778 19.778s-8.855 19.78-19.778 19.78zm35.683 6.042L78.674 117.19l4.752-7.194 15.218 6.405-8.106 12.272zM194.625 48.84c-29.83 0-54.01 24.183-54.01 54.01 0 29.83 24.18 54.01 54.01 54.01 29.828 0 54.01-24.18 54.01-54.01 0-29.828-24.182-54.01-54.01-54.01zm6.032 8.876l-3.042 16.23h-8.622l-3.042-16.23h14.707zm-40.906 71.19l-8.902-11.703 14.758-7.404 5.22 6.86-11.075 12.247zm34.875-6.277c-10.925 0-19.778-8.856-19.778-19.78s8.854-19.777 19.778-19.777c10.923 0 19.777 8.855 19.777 19.778s-8.854 19.78-19.777 19.78zm34.868 6.042L217.63 117.19l4.75-7.194 15.22 6.405-8.107 12.272zM51.55 156.756"/><path stroke="#923337" stroke-width="3" stroke-miterlimit="10" d="M52.45 154.45l28.715 27.387M79.453 181.837h88.686M166.49 181.837l26.904-26.206"/></g></svg>