<svg xmlns="http://www.w3.org/2000/svg" width="250" height="250" viewBox="0 0 250 250"><g fill="#923337"><path d="M25.094 190.978V68.218c0-5.08 4.032-9.196 9.005-9.196 4.973 0 9.004 4.116 9.004 9.195v122.76"/><path d="M43.104 139.714h195.802v16.574H43.104zM220.896 156.288h18.01v34.31h-18.01zM238.905 128.414H61.56l-6.403-10.16 9.04-7.92 30.168-.013-.033-16.507 12.054-13.237L216 91.5l22.905 10.546zM55.157 118.255s3.014-8.298 9.04-7.922l30.135 1.883M238.905 128.414s-168.68 1.883-177.344 0c-8.663-1.884-6.403-10.16-6.403-10.16M94.365 110.32s-.033-2.453-.033-16.507 12.054-13.237 12.054-13.237M106.386 80.576S195.846 88.674 216 91.5s22.905 10.546 22.905 10.546"/><circle cx="69.471" cy="86.477" r="16.071"/></g></svg>