<svg xmlns="http://www.w3.org/2000/svg" width="250" height="250" viewBox="0 0 250 250"><path fill="#923337" d="M170.7 125.265l-13.906-.46-2.47 12.287 13.006 4.946c.186 2.396.652 4.787 1.404 7.125l-10.158 9.506 6.942 10.434 12.693-5.7c1.866 1.597 3.892 2.95 6.03 4.047l-.46 13.908 12.29 2.467 4.943-13.004c2.398-.186 4.788-.65 7.125-1.4l9.51 10.155 10.433-6.942-5.698-12.69c1.597-1.867 2.95-3.893 4.047-6.033l13.903.46 2.47-12.286-13.005-4.946c-.186-2.398-.652-4.788-1.403-7.126l10.157-9.507-6.94-10.433-12.694 5.7c-1.866-1.597-3.89-2.95-6.03-4.047l.46-13.906-12.288-2.47-4.945 13.005c-2.397.186-4.79.652-7.126 1.404l-9.51-10.16-10.432 6.943 5.698 12.693c-1.596 1.863-2.95 3.888-4.047 6.03zm38.298 7.378c3.835 5.763 2.27 13.544-3.49 17.377-5.762 3.834-13.542 2.272-17.376-3.49-3.835-5.763-2.272-13.54 3.49-17.377 5.762-3.835 13.54-2.272 17.376 3.49zM43.958 54.296L33.527 61.24l5.312 12.313c-1.176 1.075-2.297 2.194-3.365 3.35L23.18 71.548 16.2 81.954l9.62 9.344c-.67 1.437-1.273 2.9-1.818 4.383l-13.417-.247-2.468 12.288 12.472 4.954c-.07 1.58-.08 3.162-.018 4.745L8.09 122.32l2.42 12.297 13.407-.196c.54 1.48 1.14 2.944 1.812 4.392l-9.656 9.306 6.942 10.435 12.314-5.312c1.075 1.176 2.195 2.297 3.35 3.365l-5.358 12.292 10.408 6.98 9.344-9.62c1.436.67 2.9 1.274 4.384 1.818l-.248 13.415 12.287 2.47 4.954-12.47c1.58.068 3.163.077 4.747.016l4.904 12.483 12.297-2.423-.196-13.407c1.48-.54 2.945-1.14 4.392-1.81l9.308 9.654 10.433-6.942-5.312-12.313c1.178-1.077 2.3-2.195 3.366-3.352l12.293 5.358 6.98-10.406-9.62-9.344c.67-1.438 1.273-2.9 1.818-4.385l13.416.247 2.47-12.287-12.472-4.954c.07-1.58.077-3.163.016-4.748l12.48-4.902-2.42-12.296-13.408.194c-.54-1.477-1.14-2.943-1.81-4.39l9.655-9.307-6.943-10.432-12.314 5.31c-1.074-1.174-2.194-2.294-3.35-3.364l5.358-12.29-10.406-6.984-9.345 9.622c-1.436-.67-2.9-1.274-4.382-1.818l.246-13.416-12.29-2.468-4.953 12.47c-1.58-.07-3.162-.078-4.747-.015L69.757 46.31 57.46 48.735l.197 13.408c-1.48.54-2.944 1.14-4.39 1.81l-9.308-9.656zm55.664 45.755c8.34 12.535 4.942 29.455-7.59 37.794-12.534 8.34-29.454 4.942-37.794-7.59s-4.94-29.455 7.592-37.795c12.532-8.342 29.452-4.94 37.792 7.59z"/></svg>