<?xml version="1.0" encoding="utf-8"?>
<!-- Generator: Adobe Illustrator 16.0.0, SVG Export Plug-In . SVG Version: 6.00 Build 0)  -->
<!DOCTYPE svg PUBLIC "-//W3C//DTD SVG 1.1//EN" "http://www.w3.org/Graphics/SVG/1.1/DTD/svg11.dtd">
<svg version="1.1" xmlns="http://www.w3.org/2000/svg" xmlns:xlink="http://www.w3.org/1999/xlink" x="0px" y="0px" width="250px"
	 height="250px" viewBox="0 0 250 250" enable-background="new 0 0 250 250" xml:space="preserve">
<g id="Layer_2" display="none">
	<circle display="inline" opacity="0.7" fill="#923337" cx="76.799" cy="170.879" r="62.799"/>
	<circle display="inline" opacity="0.7" fill="#923337" cx="172.701" cy="170.879" r="62.799"/>
	<circle display="inline" opacity="0.7" fill="#923337" cx="124.993" cy="88.121" r="62.799"/>
</g>
<g id="Layer_3" display="none">
	<rect x="2.719" y="52.886" display="inline" fill="#923337" width="14.139" height="128.785"/>
	<rect x="26.038" y="67.26" display="inline" opacity="0.9" fill="#923337" width="14.139" height="114.411"/>
	<rect x="49.358" y="80.742" display="inline" opacity="0.8" fill="#923337" width="14.138" height="100.929"/>
	<rect x="72.313" y="77.462" display="inline" opacity="0.7" fill="#923337" width="14.138" height="104.209"/>
	<rect x="94.54" y="72.725" display="inline" opacity="0.6" fill="#923337" width="14.138" height="108.946"/>
	<rect x="117.859" y="69.446" display="inline" opacity="0.5" fill="#923337" width="14.138" height="112.225"/>
	<rect x="141.178" y="77.462" display="inline" opacity="0.4" fill="#923337" width="14.139" height="104.209"/>
	<rect x="163.405" y="90.58" display="inline" opacity="0.3" fill="#923337" width="14.139" height="91.091"/>
	<rect x="186.36" y="101.51" display="inline" opacity="0.2" fill="#923337" width="14.138" height="80.161"/>
	<rect x="209.543" y="115.721" display="inline" opacity="0.1" fill="#923337" width="14.138" height="65.95"/>
	<rect x="232.862" y="134.667" display="inline" opacity="0.05" fill="#923337" width="14.138" height="47.004"/>
</g>
<g id="Layer_1" display="none">
	<path display="inline" fill="#923337" d="M54.857,48.841c-29.829,0-54.01,24.182-54.01,54.01c0,29.83,24.181,54.01,54.01,54.01
		s54.01-24.18,54.01-54.01C108.867,73.022,84.686,48.841,54.857,48.841z M61.703,57.716L58.66,73.944h-8.621l-3.043-16.229H61.703z
		 M20.796,128.907l-8.904-11.704l14.758-7.404l5.219,6.862L20.796,128.907z M54.857,122.629c-10.923,0-19.778-8.855-19.778-19.778
		s8.855-19.778,19.778-19.778c10.923,0,19.778,8.855,19.778,19.778S65.78,122.629,54.857,122.629z M90.539,128.672l-11.864-11.483
		l4.752-7.193l15.218,6.405L90.539,128.672z"/>
	<path display="inline" fill="#923337" d="M194.625,48.841c-29.829,0-54.01,24.182-54.01,54.01c0,29.83,24.181,54.01,54.01,54.01
		c29.828,0,54.01-24.18,54.01-54.01C248.635,73.022,224.453,48.841,194.625,48.841z M200.657,57.716l-3.042,16.229h-8.622
		l-3.042-16.229H200.657z M159.751,128.907l-8.903-11.704l14.758-7.404l5.22,6.862L159.751,128.907z M194.625,122.629
		c-10.925,0-19.778-8.855-19.778-19.778s8.854-19.778,19.778-19.778c10.923,0,19.777,8.855,19.777,19.778
		S205.548,122.629,194.625,122.629z M229.493,128.672l-11.864-11.483l4.752-7.193l15.218,6.405L229.493,128.672z"/>
	<path display="inline" fill="#923337" d="M51.551,156.756"/>
	
		<line display="inline" fill="#923337" stroke="#923337" stroke-width="3" stroke-miterlimit="10" x1="52.449" y1="154.451" x2="81.165" y2="181.837"/>
	
		<line display="inline" fill="#923337" stroke="#923337" stroke-width="3" stroke-miterlimit="10" x1="79.453" y1="181.837" x2="168.139" y2="181.837"/>
	
		<line display="inline" fill="#923337" stroke="#923337" stroke-width="3" stroke-miterlimit="10" x1="166.49" y1="181.837" x2="193.394" y2="155.631"/>
</g>
<g id="Layer_5">
	<path fill="#923337" d="M183.006,180.364c0,5.244-4.25,9.493-9.493,9.493H59.2c-5.243,0-9.493-4.249-9.493-9.493v-70.045
		c0-5.243,4.25-9.494,9.493-9.494h114.312c5.243,0,9.493,4.251,9.493,9.494V180.364z"/>
	<path fill="#923337" d="M43.561,136.812c0,3.605-2.924,6.53-6.531,6.53l0,0c-3.606,0-6.53-2.925-6.53-6.53v-26.506
		c0-3.607,2.924-6.53,6.53-6.53l0,0c3.607,0,6.531,2.923,6.531,6.53V136.812z"/>
	<circle fill="#923337" cx="84.665" cy="69.586" r="26.506"/>
	<circle fill="#923337" cx="142.863" cy="69.586" r="26.506"/>
	<path fill="#923337" d="M219.5,181.758c0,9.795-8.643,1.536-8.643,1.536l-19.784-19.208V116.08l17.286-15.255
		c0,0,11.141-9.342,11.141-2.043S219.5,171.962,219.5,181.758z"/>
	<rect x="180.701" y="116.08" fill="#923337" width="10.372" height="48.006"/>
</g>
<g id="Layer_6" display="none">
	<path display="inline" fill="#923337" d="M25.094,190.978V68.217c0-5.079,4.032-9.195,9.005-9.195l0,0
		c4.974,0,9.005,4.116,9.005,9.195v122.76"/>
	<rect x="43.104" y="139.714" display="inline" fill="#923337" width="195.802" height="16.574"/>
	<rect x="220.896" y="156.288" display="inline" fill="#923337" width="18.009" height="34.311"/>
	<polygon display="inline" fill="#923337" points="238.905,128.414 61.561,128.414 55.157,118.255 64.198,110.333 94.365,110.321 
		94.332,93.813 106.386,80.576 215.999,91.499 238.905,102.046 	"/>
	<path display="inline" fill="#923337" d="M55.157,118.255c0,0,3.014-8.298,9.041-7.922c6.027,0.377,30.134,1.883,30.134,1.883"/>
	<path display="inline" fill="#923337" d="M238.905,128.414c0,0-168.681,1.883-177.344,0c-8.664-1.884-6.404-10.159-6.404-10.159"/>
	<path display="inline" fill="#923337" d="M94.365,110.321c0,0-0.033-2.454-0.033-16.508s12.054-13.237,12.054-13.237"/>
	<path display="inline" fill="#923337" d="M106.386,80.576c0,0,89.461,8.098,109.613,10.923s22.906,10.547,22.906,10.547"/>
	<circle display="inline" fill="#923337" cx="69.471" cy="86.477" r="16.071"/>
</g>
<g id="Layer_4" display="none">
	<path display="inline" fill="#923337" d="M170.699,125.265l-13.905-0.461l-2.469,12.288l13.005,4.946
		c0.186,2.396,0.652,4.787,1.404,7.125l-10.158,9.506l6.942,10.435l12.693-5.699c1.865,1.596,3.891,2.948,6.03,4.046l-0.46,13.907
		l12.288,2.467l4.944-13.004c2.398-0.187,4.788-0.652,7.125-1.402l9.509,10.156l10.434-6.942l-5.699-12.691
		c1.597-1.866,2.949-3.892,4.047-6.032l13.904,0.461l2.47-12.287l-13.005-4.946c-0.186-2.398-0.652-4.788-1.403-7.126l10.157-9.507
		l-6.941-10.433l-12.693,5.699c-1.866-1.596-3.891-2.95-6.03-4.046l0.46-13.906l-12.288-2.468l-4.945,13.004
		c-2.397,0.186-4.789,0.652-7.126,1.404l-9.508-10.159l-10.433,6.943l5.698,12.693C173.15,121.099,171.797,123.124,170.699,125.265z
		 M208.998,132.643c3.835,5.763,2.271,13.544-3.49,17.377c-5.762,3.834-13.542,2.272-17.376-3.49
		c-3.835-5.763-2.272-13.541,3.49-17.377C197.384,125.318,205.163,126.881,208.998,132.643z M43.959,54.296l-10.433,6.943
		l5.312,12.314c-1.176,1.075-2.297,2.194-3.365,3.351l-12.292-5.357l-6.982,10.407l9.621,9.344c-0.669,1.437-1.273,2.9-1.818,4.383
		l-13.417-0.248l-2.468,12.288l12.472,4.953c-0.07,1.579-0.079,3.162-0.017,4.745l-12.483,4.903l2.421,12.297l13.407-0.195
		c0.54,1.479,1.141,2.944,1.812,4.392l-9.655,9.306l6.942,10.435l12.314-5.312c1.075,1.176,2.195,2.297,3.351,3.365l-5.359,12.292
		l10.408,6.981l9.344-9.62c1.436,0.669,2.9,1.273,4.384,1.817l-0.248,13.415l12.287,2.469l4.954-12.47
		c1.579,0.069,3.162,0.078,4.746,0.017l4.904,12.482l12.296-2.423l-0.196-13.407c1.479-0.539,2.944-1.141,4.391-1.811l9.308,9.655
		l10.433-6.942l-5.312-12.313c1.177-1.077,2.298-2.195,3.365-3.352l12.293,5.358l6.982-10.406l-9.621-9.344
		c0.669-1.438,1.273-2.901,1.818-4.385l13.416,0.247l2.469-12.287l-12.471-4.954c0.07-1.579,0.077-3.162,0.016-4.747l12.481-4.902
		l-2.421-12.296l-13.408,0.194c-0.539-1.477-1.14-2.943-1.811-4.389l9.656-9.308l-6.943-10.433l-12.314,5.311
		c-1.074-1.175-2.194-2.295-3.35-3.365l5.358-12.291l-10.406-6.983l-9.345,9.622c-1.436-0.669-2.9-1.274-4.382-1.818l0.246-13.416
		L84.36,46.34l-4.953,12.47c-1.579-0.069-3.162-0.078-4.747-0.015l-4.903-12.484l-12.296,2.423l0.196,13.408
		c-1.479,0.539-2.944,1.141-4.391,1.811L43.959,54.296z M99.622,100.051c8.341,12.534,4.942,29.454-7.591,37.793
		c-12.533,8.341-29.453,4.942-37.793-7.591s-4.941-29.454,7.592-37.794C74.362,84.118,91.282,87.519,99.622,100.051z"/>
</g>
</svg>
